<?xml version="1.0" encoding="UTF-8" standalone="no"?>
<svg width="428px" height="71px" viewBox="0 0 428 71" version="1.1" xmlns="http://www.w3.org/2000/svg" xmlns:xlink="http://www.w3.org/1999/xlink">
    <!-- Generator: Sketch 41.2 (35397) - http://www.bohemiancoding.com/sketch -->
    <title>MS Mini logo</title>
    <desc>Created with Sketch.</desc>
    <defs></defs>
    <g id="Page-1" stroke="none" stroke-width="1" fill="none" fill-rule="evenodd">
        <g id="Assets-&amp;-Colors" transform="translate(-65.000000, -42.000000)">
            <g id="MS-Mini-logo" transform="translate(65.000000, 42.000000)">
                <rect id="Rectangle" fill-opacity="0.795969203" fill="#FFDB00" x="0.58508559" y="0.682352941" width="70" height="70" rx="8"></rect>
                <g id="Bird" transform="translate(9.605874, 16.000000)">
                    <path d="M4.79306895,6.22449148 C4.79306895,6.22449148 27.0345147,4.03782359 21.4522182,13.8890015 C15.8699216,23.7401794 4.79306895,6.22449148 4.79306895,6.22449148 Z" id="Path-3" fill="#D8D8D8" transform="translate(13.572115, 11.456414) rotate(50.000000) translate(-13.572115, -11.456414) "></path>
                    <path d="M27.0105875,0.577228172 C27.0105875,0.577228172 16.0272231,-3.28162573 13.7960505,9.90530319 C11.5648779,23.0922321 0.328421015,21.8474405 0.328421015,21.8474405 C0.328421015,21.8474405 23.7815175,26.6695838 29.6097137,15.032748 C35.4379099,3.3959122 27.0105875,0.577228172 27.0105875,0.577228172 Z" id="Path-7" fill="#CD4747"></path>
                    <path d="M1.11322171,7.58856144 C1.11322171,7.58856144 23.3546674,5.40189354 17.7723709,15.2530715 C12.1900744,25.1042494 1.11322171,7.58856144 1.11322171,7.58856144 Z" id="Front-Wing" fill="#E48181" transform="translate(9.892268, 12.820484) rotate(7.000000) translate(-9.892268, -12.820484) "></path>
                    <ellipse id="Oval" fill="#FFFFFF" cx="23.919007" cy="6.47933227" rx="4.7838014" ry="4.43322734"></ellipse>
                    <ellipse id="Oval" fill="#000000" cx="26.3109077" cy="4.94475358" rx="1.65593126" ry="1.5345787"></ellipse>
                    <path d="" id="Path-9" stroke="#979797"></path>
                    <polygon id="Triangle" fill="#FFCF00" transform="translate(32.105577, 3.153401) rotate(63.000000) translate(-32.105577, -3.153401) " points="32.1055768 1.61882268 33.7615081 4.68798007 30.4496456 4.68798007"></polygon>
                </g>
                <path d="M39.5520119,18.3810118 C39.5520119,18.3810118 40.9161378,22.1353478 38.0783193,32.636228 C35.2405008,43.1371083 32.5014733,45.7854277 30.3460632,56.1764664 C27.5377013,69.7153267 40.1266181,72.0435359 40.1266181,72.0435359 C40.1266181,72.0435359 48.9073372,69.6379568 48.9073372,54.5632208 C48.9073372,39.4884847 39.5520119,18.3810118 39.5520119,18.3810118 Z" id="Path-6" fill="#81BE3B" transform="translate(39.422410, 45.212274) rotate(60.000000) translate(-39.422410, -45.212274) "></path>
                <path d="M15.1382558,59.3911679 C15.1382558,59.3911679 29.5375196,55.4164196 38.1053167,50.7152379 C46.6731139,46.0140562 64.6349875,32.23213 64.6349875,32.23213" id="Path-2" stroke="#719547"></path>
                <path d="M47.7406207,38.5182829 C47.7406207,38.5182829 48.1052737,39.8117497 48.1052737,40.4426271 C48.1052737,41.1599288 47.4850131,41.6502651 47.3688326,42.5180039 C47.2526521,43.3857427 47.6537278,44.6083183 47.6537278,44.6083183" id="Path-4" stroke="#719547" opacity="0.747201493"></path>
                <path d="M38.8570673,40.328576 C38.8570673,40.328576 39.9670591,41.3114854 39.9670591,42.760093 C39.9670591,43.5752514 39.028677,45.4526434 38.8570673,47.2052461 C38.6854576,48.9578488 39.3473781,49.9744867 39.3473781,49.9744867" id="Path-8" stroke="#719547"></path>
                <path d="M28.512432,42.4357675 C28.512432,42.4357675 29.3320262,43.2186301 29.3320262,44.8751386 C29.3320262,47.0801976 28.512432,49.2261203 28.512432,51.4311793 C28.512432,53.6362383 29.3320262,54.6966101 29.3320262,54.6966101" id="Path-10" stroke="#719547"></path>
                <path d="M29.4547507,54.7723762 C29.4547507,54.7723762 29.5236299,55.7679287 30.622298,56.4227735 C31.7209661,57.0776182 33.9871816,58.0731707 33.9871816,58.0731707" id="Path-11" stroke="#719547"></path>
                <path d="M39.3470684,49.8891698 C39.3470684,49.8891698 39.6139216,51.0930422 40.2181447,51.5034698 C40.8223678,51.9138973 42.9116844,52.6234172 42.9116844,52.6234172" id="Path-12" stroke="#719547"></path>
                <path d="M47.7670871,44.5339301 C47.7670871,44.5339301 47.9887131,45.1387526 48.5438975,45.7663636 C49.0990818,46.3939747 50.2745223,46.4835221 50.2745223,46.4835221" id="Path-13" stroke="#719547"></path>
                <path d="M15.3382933,59.1753237 C15.3382933,59.1753237 13.8360184,59.792824 13.1466442,59.9080643 C12.4572701,60.0233045 10.9549951,59.9080643 10.9549951,59.9080643 L11.1863525,60.8871248 L15.3577682,59.5654848 L15.3382933,59.1753237 Z" id="Path-14" fill="#914A4A"></path>
                <text id="MATHSPRING" font-family="Raleway-Light, Raleway" font-size="55" font-weight="300">
                    <tspan x="77.8649875" y="56" fill="#2ECC71">M</tspan>
                    <tspan x="126.264988" y="56" fill="#000000">ATH</tspan>
                    <tspan x="233.294988" y="56" fill="#2ECC71">S</tspan>
                    <tspan x="266.569988" y="56" fill="#000000">PRING</tspan>
                </text>
            </g>
        </g>
    </g>
</svg>