<?xml version="1.0" encoding="UTF-8"?>
<svg width="18px" height="30px" viewBox="0 0 18 30" version="1.1" xmlns="http://www.w3.org/2000/svg" xmlns:xlink="http://www.w3.org/1999/xlink">
    <!-- Generator: Sketch 41.2 (35397) - http://www.bohemiancoding.com/sketch -->
    <title>question-mark</title>
    <desc>Created with Sketch.</desc>
    <defs></defs>
    <g id="Page-1" stroke="none" stroke-width="1" fill="none" fill-rule="evenodd">
        <g id="Tutoring-System" transform="translate(-44.000000, -271.000000)" fill="#2ECC71">
            <g id="?" transform="translate(24.000000, 259.000000)">
                <g id="question-mark" transform="translate(20.000000, 12.000000)">
                    <g id="Capa_1">
                        <g id="Group">
                            <path d="M9.013875,0 C4.073625,0 0.056625,3.69836991 0.056625,8.24407524 L4.531875,8.24407524 C4.531875,6.17445141 6.5416875,4.48918495 9.013875,4.48918495 C11.4857813,4.48918495 13.4955,6.17445141 13.4955,8.24407524 L13.4955,8.89570533 C13.4955,11.0953918 12.530625,12.1223511 11.0659688,13.6743574 C9.1561875,15.6992163 6.77746875,18.22279 6.77746875,23.633511 L11.2535625,23.633511 C11.2535625,20.0105643 12.6733125,18.5017241 14.3184375,16.7570219 C15.9466875,15.0315987 17.9709375,12.8831661 17.9709375,8.89570533 L17.9709375,8.24407524 C17.9708438,3.69836991 13.9542188,0 9.013875,0 Z" id="Shape"></path>
                            <rect id="Rectangle-path" x="6.70078125" y="26.1438245" width="4.6845" height="3.78968652"></rect>
                        </g>
                    </g>
                </g>
            </g>
        </g>
    </g>
</svg>